<?xml version="1.0" standalone="no"?>
<!DOCTYPE svg PUBLIC "-//W3C//DTD SVG 20010904//EN"
 "http://www.w3.org/TR/2001/REC-SVG-20010904/DTD/svg10.dtd">
<svg version="1.0" xmlns="http://www.w3.org/2000/svg"
 width="300.000000pt" height="300.000000pt" viewBox="0 0 300.000000 300.000000"
 preserveAspectRatio="xMidYMid meet">
<metadata>
Created by potrace 1.11, written by Peter Selinger 2001-2013
</metadata>
<g transform="translate(0.000000,300.000000) scale(0.100000,-0.100000)"
fill="#000000" stroke="none">
<path d="M1418 2885 c-2 -1 -37 -5 -78 -9 -229 -19 -490 -125 -690 -279 -480
-370 -661 -1018 -444 -1593 215 -573 798 -936 1414 -881 195 18 396 79 560
172 201 114 384 294 517 510 40 65 120 257 139 334 26 108 31 137 41 239 18
192 -2 367 -67 565 -70 211 -170 374 -327 532 -88 89 -109 106 -206 172 -126
86 -268 150 -427 194 -67 18 -78 21 -175 34 -50 7 -251 15 -257 10z"/>
</g>
</svg>
